# xmcd CD database file
#
# Track frame offsets:
#	150
#	14982
#	29702
#	44650
#	61992
#	81680
#	98267
#	113355
#	131762
#	151597
#	169232
#	182715
#	198220
#	213020
#	230542
#	246117
#	262355
#	277930
#
# Disc length: 3926 seconds
#
# Revision: 4
# Processed by: cddbd v1.5.2PL0 Copyright (c) Steve Scherf et al.
# Submitted via: CDex 1.81
#
DISCID=fd0f5412
DTITLE=Bellamy Brothers - The Very Best of..
DYEAR=1991
DGENRE=Country
TTITLE0=Let Your Love Flow
TTITLE1=If I Said You Have A Beautiful Body Would You Hold It Against Me
TTITLE2=Lovers Live Longer
TTITLE3=When I'm Away From You
TTITLE4=World's Greatest Lover
TTITLE5=Sugar Daddy
TTITLE6=Dancin' Cowboys
TTITLE7=Old Hippie
TTITLE8=You Ain't Just Whistlin' Dixie
TTITLE9=For All The Wrong Reasons
TTITLE10=Do You Love As Good As You Look
TTITLE11=I Need More Of You
TTITLE12=I Love Her Mind
TTITLE13=Too Much Is Not Enough
TTITLE14=Lie To You For Your Love
TTITLE15=Forget About Me
TTITLE16=Strong Weakness
TTITLE17=Feelin' The Feelin'
EXTD=German production YEAR: 1991
EXTT0=
EXTT1=
EXTT2=
EXTT3=
EXTT4=
EXTT5=
EXTT6=
EXTT7=
EXTT8=
EXTT9=
EXTT10=
EXTT11=
EXTT12=
EXTT13=
EXTT14=
EXTT15=
EXTT16=
EXTT17=
PLAYORDER=
